<!DOCTYPE svg PUBLIC "-//W3C//DTD SVG 1.1//EN" "http://www.w3.org/Graphics/SVG/1.1/DTD/svg11.dtd">
<!-- Uploaded to: SVG Repo, www.svgrepo.com, Transformed by: SVG Repo Mixer Tools -->
<svg width="800px" height="800px" viewBox="-1.6 -1.6 19.20 19.20" xmlns="http://www.w3.org/2000/svg" fill="#000000" class="bi bi-sunrise">
<g id="SVGRepo_bgCarrier" stroke-width="0">
<path transform="translate(-1.6, -1.6), scale(0.6)" d="M16,31.29699924801077C20.497214324932813,31.513244899428994,24.55808574066802,28.568902382078893,27.1063904100196,24.857050798529364C29.443954749313203,21.452162835637683,29.296590173328063,17.200675905834018,28.453260027030815,13.157624663946514C27.582956227658414,8.98525768249656,26.34062890817785,4.348356150573198,22.460598730364005,2.5844285017310753C18.63794427403347,0.8465848308114361,14.507090262040629,3.2234460126281452,10.756880289242932,5.112549735822784C7.128426289907768,6.940320983114036,3.0868702094297547,8.88592622939821,2.118189044439532,12.831567236675628C1.1369606526756226,16.828315723147572,3.683792359226422,20.560155726573225,6.156784402468761,23.849702500063373C8.757923080232187,27.309708515132716,11.676304732946324,31.089097148621306,16,31.29699924801077" fill="#f8cb00" strokewidth="0"/>
</g>
<g id="SVGRepo_tracerCarrier" stroke-linecap="round" stroke-linejoin="round"/>
<g id="SVGRepo_iconCarrier"> <path d="M7.646 1.146a.5.5 0 0 1 .708 0l1.5 1.5a.5.5 0 0 1-.708.708L8.5 2.707V4.5a.5.5 0 0 1-1 0V2.707l-.646.647a.5.5 0 1 1-.708-.708l1.5-1.5zM2.343 4.343a.5.5 0 0 1 .707 0l1.414 1.414a.5.5 0 0 1-.707.707L2.343 5.05a.5.5 0 0 1 0-.707zm11.314 0a.5.5 0 0 1 0 .707l-1.414 1.414a.5.5 0 1 1-.707-.707l1.414-1.414a.5.5 0 0 1 .707 0zM8 7a3 3 0 0 1 2.599 4.5H5.4A3 3 0 0 1 8 7zm3.71 4.5a4 4 0 1 0-7.418 0H.499a.5.5 0 0 0 0 1h15a.5.5 0 0 0 0-1h-3.79zM0 10a.5.5 0 0 1 .5-.5h2a.5.5 0 0 1 0 1h-2A.5.5 0 0 1 0 10zm13 0a.5.5 0 0 1 .5-.5h2a.5.5 0 0 1 0 1h-2a.5.5 0 0 1-.5-.5z"/> </g>
</svg>