<!DOCTYPE svg PUBLIC "-//W3C//DTD SVG 1.1//EN" "http://www.w3.org/Graphics/SVG/1.1/DTD/svg11.dtd">
<!-- Uploaded to: SVG Repo, www.svgrepo.com, Transformed by: SVG Repo Mixer Tools -->
<svg width="800px" height="800px" viewBox="-2.4 -2.4 28.80 28.80" fill="none" xmlns="http://www.w3.org/2000/svg">
<g id="SVGRepo_bgCarrier" stroke-width="0">
<path transform="translate(-2.4, -2.4), scale(0.8999999999999999)" d="M16,31.03972460826238C18.96614986200125,31.24242846568549,22.350405930185122,31.313634229885384,24.571017232566994,29.33676314117016C26.765692672451348,27.38298112557513,26.312101608401186,23.910874305715947,27.16599494015162,21.09933902603577C27.886359282289824,18.727462250755956,29.61852351718648,16.545335015980047,29.197845204456154,14.102436332093557C28.780050666510572,11.676283863576586,26.76295839306605,9.910756011771543,24.952072109998994,8.242985360204687C23.302332239174895,6.723625605256316,21.310975027077767,5.818379812627043,19.24785979336716,4.938805348027987C16.914736919310396,3.944117669288203,14.638611621006977,2.512799151946108,12.115406327657535,2.7702889018333217C9.388134521113088,3.048603368433612,6.838968959689154,4.441101461043714,4.921878128428098,6.400752754969757C2.939546264965717,8.42709346761588,1.6784000506789178,11.077116993905719,1.2479785361725817,13.878979520953663C0.8150608094831536,16.69709133652379,1.2632887084470634,19.596255696784937,2.5001510864734,22.16517442281753C3.721853661998401,24.702606783656627,5.79689094018801,26.667577600636974,8.15016743081515,28.21457790042347C10.521975138783088,29.773760278642236,13.168203640038115,30.84620234124728,16,31.03972460826238" fill="#fb5d00" strokewidth="0"/>
</g>
<g id="SVGRepo_tracerCarrier" stroke-linecap="round" stroke-linejoin="round"/>
<g id="SVGRepo_iconCarrier"> <path d="M6 12L5 11M18 12L19 11M3 18H21M5 21H19M7 18C7 15.2386 9.23858 13 12 13C14.7614 13 17 15.2386 17 18M12 3V10M12 10L15 7M12 10L9 7" stroke="#000000" stroke-width="2" stroke-linecap="round" stroke-linejoin="round"/> </g>
</svg>