<!DOCTYPE svg PUBLIC "-//W3C//DTD SVG 1.1//EN" "http://www.w3.org/Graphics/SVG/1.1/DTD/svg11.dtd">
<!-- Uploaded to: SVG Repo, www.svgrepo.com, Transformed by: SVG Repo Mixer Tools -->
<svg fill="#000000" width="800px" height="800px" viewBox="-3.2 -3.2 38.40 38.40" id="icon" xmlns="http://www.w3.org/2000/svg">
<g id="SVGRepo_bgCarrier" stroke-width="0">
<path transform="translate(-3.2, -3.2), scale(1.2)" d="M16,30.36888156618391C18.832166563121877,30.784507115675034,22.153742781971157,30.801347643276483,24.282074625616588,28.88715966870862C26.40043743503637,26.981937685741066,25.406954924150305,23.42814361750669,26.595982163570284,20.839022913361557C27.78891496681123,18.24139779837117,31.1726828918803,16.672229729149546,31.204290837247626,13.813953002017135C31.23591719263308,10.954011474286144,28.74950214863833,8.730406607191384,26.752526313238853,6.682882912279457C24.847391658217585,4.729525100429127,22.605917485841495,3.1831372649790977,20.01155364031727,2.3379029590517515C17.362087977981275,1.4747166815963637,14.508013117273356,1.028136144870866,11.837433345983339,1.8235998653895162C9.171879531278996,2.617566545389929,6.675410845988907,4.308847341425203,5.292713387676907,6.722083336269735C3.9949036707606336,8.98716388913688,5.047346617543492,11.787998226221454,4.649885830084646,14.368099948001397C4.246730330799679,16.98516867697104,2.035880806385496,19.47503316300513,2.9450261115879766,21.96200680636824C3.854154261016244,24.448933519985296,6.919251870763674,25.232235086675068,9.145482464094854,26.66583747796119C11.374013827062003,28.10092147176495,13.377463185875113,29.984019560317325,16,30.36888156618391" fill="#d6d6d6" strokewidth="0"/>
</g>
<g id="SVGRepo_tracerCarrier" stroke-linecap="round" stroke-linejoin="round"/>
<g id="SVGRepo_iconCarrier">
<defs>
<style>.cls-1{fill:none;}</style>
</defs>
<title>fog</title>
<path d="M24.8008,11.1382a8.9938,8.9938,0,0,0-17.6006,0A6.533,6.533,0,0,0,2,17.5H2V19a1,1,0,0,0,1,1H15a1,1,0,0,0,0-2H4v-.4966H4a4.5176,4.5176,0,0,1,4.144-4.4819l.8155-.064.0991-.812a6.9936,6.9936,0,0,1,13.8838,0l.0986.812.8154.064A4.4962,4.4962,0,0,1,23.5,22H7a1,1,0,0,0,0,2H23.5a6.4963,6.4963,0,0,0,1.3008-12.8618Z"/>
<rect x="2" y="26" width="18" height="2" rx="1"/>
<rect id="_Transparent_Rectangle_" data-name="&lt;Transparent Rectangle&gt;" class="cls-1" width="32" height="32"/>
</g>
</svg>