<!DOCTYPE svg PUBLIC "-//W3C//DTD SVG 1.1//EN" "http://www.w3.org/Graphics/SVG/1.1/DTD/svg11.dtd">
<!-- Uploaded to: SVG Repo, www.svgrepo.com, Transformed by: SVG Repo Mixer Tools -->
<svg width="800px" height="800px" viewBox="0 0 24.00 24.00" fill="none" xmlns="http://www.w3.org/2000/svg">
<g id="SVGRepo_bgCarrier" stroke-width="0">
<path transform="translate(0, 0), scale(0.75)" d="M16,30.393964181343712C18.827416624403853,29.78450348925256,20.534215505897645,27.13593616345382,22.688636006869828,25.20611767246813C24.574994828178518,23.5164149740614,26.98370147090074,22.231475018752747,27.791874843807467,19.831412392266373C28.60379100408748,17.420234670437026,27.49839366973065,14.921886351158152,26.991158475761587,12.428756126807812C26.40475857217158,9.546520547378472,26.675392025323195,6.246089551546727,24.603211258601476,4.158695565666882C22.42510251619178,1.9645959183223165,19.06195526837362,0.9295159941968987,16.000000000000004,1.3569044483204689C13.087090986965228,1.7634889902118362,11.14495442610495,4.347292757808695,8.9810476773307,6.339240922428823C7.090312581473132,8.079725490957363,5.373207014587428,9.87197382905512,4.242755127071801,12.179839567352273C2.9425620542754363,14.834239174285164,1.5658424980713521,17.62094788764727,2.02474144156435,20.540836765583233C2.5235873454974023,23.71490074492264,4.2013623567147516,26.773659446610825,6.827341235983404,28.625081685443895C9.436137018723148,30.464389140225656,12.879667212601706,31.066564095961333,16,30.393964181343712" fill="#ebebeb" strokewidth="0"/>
</g>
<g id="SVGRepo_tracerCarrier" stroke-linecap="round" stroke-linejoin="round" stroke="#fffb00" stroke-width="0.144"/>
<g id="SVGRepo_iconCarrier"> <path d="M12 3V4M12 20V21M4 12H3M6.31412 6.31412L5.5 5.5M17.6859 6.31412L18.5 5.5M6.31412 17.69L5.5 18.5001M17.6859 17.69L18.5 18.5001M21 12H20M16 12C16 14.2091 14.2091 16 12 16C9.79086 16 8 14.2091 8 12C8 9.79086 9.79086 8 12 8C14.2091 8 16 9.79086 16 12Z" stroke="#000000" stroke-width="1.7759999999999998" stroke-linecap="round" stroke-linejoin="round"/> </g>
</svg>