<!DOCTYPE svg PUBLIC "-//W3C//DTD SVG 1.1//EN" "http://www.w3.org/Graphics/SVG/1.1/DTD/svg11.dtd">
<!-- Uploaded to: SVG Repo, www.svgrepo.com, Transformed by: SVG Repo Mixer Tools -->
<svg width="800px" height="800px" viewBox="-2.4 -2.4 28.80 28.80" fill="none" xmlns="http://www.w3.org/2000/svg">
<g id="SVGRepo_bgCarrier" stroke-width="0">
<path transform="translate(-2.4, -2.4), scale(0.8999999999999999)" d="M16,31.020606668459045C18.2623343012373,31.170310381111904,20.62596312112153,30.81211613468369,22.576576992466862,29.656402841062786C24.48713776143686,28.524420488529678,25.51770297796643,26.426384152044765,26.806500070600165,24.61789623325945C28.040993121593385,22.885609761396548,30.24487604056691,21.317563638425472,30.027074479596042,19.201588214752405C29.787354288136054,16.87266994884807,26.55791765258352,15.963025690695183,25.69174921906098,13.787921485323501C25.004082833211775,12.061067919821877,26.41451569928212,9.988447727190827,25.678534948328824,8.28162593533943C24.921736145537142,6.526524749637547,23.491201932415326,4.709702806284184,21.616558116941622,4.337096895078693C19.6402785935041,3.9442897780418384,17.931760286363037,5.784953944546898,16,6.3579115188784066C14.60627523272752,6.771288461959487,13.238659956808199,7.167843307091347,11.787385829596605,7.252416539653527C9.408607995845273,7.391040199495207,6.884401939520512,5.991091564518559,4.732568125188113,7.014522918792144C2.6583221065479834,8.001052825429971,0.4017336791947705,10.239653484356015,0.7252912212742988,12.513647398045919C1.1050743413213096,15.182800148924445,5.423564822346947,15.667418760820459,6.325270991835184,18.208193762606705C7.074794147084549,20.320156351482368,4.35591175793377,22.597254010060492,5.059065655765044,24.72510398903693C5.724472075796391,26.738724394529214,7.99149126301222,27.755229749375356,9.829628336654618,28.812908783740315C11.747067377181498,29.91621881535806,13.79261923545922,30.874539354044227,16,31.020606668459045" fill="#ebebeb" strokewidth="0"/>
</g>
<g id="SVGRepo_tracerCarrier" stroke-linecap="round" stroke-linejoin="round"/>
<g id="SVGRepo_iconCarrier"> <path d="M3 13.6493C3 16.6044 5.41766 19 8.4 19L16.5 19C18.9853 19 21 16.9839 21 14.4969C21 12.6503 19.8893 10.9449 18.3 10.25C18.1317 7.32251 15.684 5 12.6893 5C10.3514 5 8.34694 6.48637 7.5 8.5C4.8 8.9375 3 11.2001 3 13.6493Z" stroke="#000000" stroke-width="2" stroke-linecap="round" stroke-linejoin="round"/> </g>
</svg>