<!DOCTYPE svg PUBLIC "-//W3C//DTD SVG 1.1//EN" "http://www.w3.org/Graphics/SVG/1.1/DTD/svg11.dtd">
<!-- Uploaded to: SVG Repo, www.svgrepo.com, Transformed by: SVG Repo Mixer Tools -->
<svg width="800px" height="800px" viewBox="-2 -2 24.00 24.00" xmlns="http://www.w3.org/2000/svg" fill="#000000">
<g id="SVGRepo_bgCarrier" stroke-width="0">
<path transform="translate(-2, -2), scale(0.75)" d="M16,27.72817725688219C18.15191586386381,27.881069244167932,19.75097749811767,25.751805393683306,21.306338332393395,24.256823614487978C22.624002443399036,22.9903111797896,23.044932129784463,21.132295368807675,24.27171802428331,19.777567047063215C26.26239023603842,17.57928612724875,30.650942056572262,16.852220031267617,30.696908733938614,13.886903535234485C30.739807241214063,11.11951510153828,26.523125804868556,10.51003533552691,24.44369205770071,8.683499183127653C22.714284206901983,7.164419305719086,21.702080087841754,4.749221678712452,19.50661724135165,4.057558409459668C17.299638653145852,3.362267196524906,15.058627103656956,4.652169164585238,12.771994493687167,5.006422840086138C10.068280060295878,5.425292391476971,6.620941343018854,4.252842552164973,4.83996147551516,6.329771571163278C3.0568899591432013,8.409139812699312,4.966190456722385,11.650866908554569,4.733934317659845,14.380184296157816C4.520128526859343,16.892685643839886,2.0843500777480144,19.62944987546621,3.5325407187766604,21.69369787547035C5.065213710999343,23.87836684737365,8.754982333646515,22.373066072561052,11.157082515783234,23.5357266992551C13.118692380498704,24.48518191831703,13.826172947380147,27.573728496281582,16,27.72817725688219" fill="#ebebeb" strokewidth="0"/>
</g>
<g id="SVGRepo_tracerCarrier" stroke-linecap="round" stroke-linejoin="round"/>
<g id="SVGRepo_iconCarrier"> <g id="wave" transform="translate(-2 -4)"> <path id="primary" d="M21,11c-2.25,0-2.25,2-4.5,2s-2.25-2-4.5-2-2.25,2-4.5,2S5.25,11,3,11" fill="none" stroke="#000000" stroke-linecap="round" stroke-linejoin="round" stroke-width="2"/> <path id="primary-2" data-name="primary" d="M3,5C5.25,5,5.25,7,7.5,7S9.75,5,12,5s2.26,2,4.51,2S18.75,5,21,5" fill="none" stroke="#000000" stroke-linecap="round" stroke-linejoin="round" stroke-width="2"/> <path id="primary-3" data-name="primary" d="M21,17c-2.25,0-2.25,2-4.5,2s-2.25-2-4.5-2-2.25,2-4.5,2S5.25,17,3,17" fill="none" stroke="#000000" stroke-linecap="round" stroke-linejoin="round" stroke-width="2"/> </g> </g>
</svg>