<!DOCTYPE svg PUBLIC "-//W3C//DTD SVG 1.1//EN" "http://www.w3.org/Graphics/SVG/1.1/DTD/svg11.dtd">
<!-- Uploaded to: SVG Repo, www.svgrepo.com, Transformed by: SVG Repo Mixer Tools -->
<svg width="800px" height="800px" viewBox="-2.01 -2.01 24.11 24.11" xmlns="http://www.w3.org/2000/svg" fill="#000000">
<g id="SVGRepo_bgCarrier" stroke-width="0">
<path transform="translate(-2.01, -2.01), scale(0.7534375)" d="M16,28.78522835920254C18.031603316956488,28.95554240250328,19.946222342596936,27.90496719061713,21.731778753601724,26.920991980597208C23.49422164325809,25.949754050611087,24.84546649975139,24.500322573921782,26.299662343887192,23.10934360109647C28.0600556878675,21.425478160789538,30.974534456189495,20.27165019120373,31.217402993983082,17.847727251021794C31.461790838852995,15.408641032347976,28.708593212171895,13.760444920066224,27.446972897765793,11.658735810050626C26.40590440905823,9.924439760849125,26.002815203274928,7.7538690552329985,24.409880972568153,6.507206742857109C22.838516282284253,5.277425185896046,20.604075942625382,5.583352117051043,18.748037351673915,4.850774191768352C16.56188695047592,3.9879012250782804,14.850760887609583,1.8844573633459376,12.501757882321826,1.807073809203203C10.051801819012201,1.7263645435080672,7.232294890324489,2.4752783408842127,5.743097599084846,4.422350534070986C4.220570571501146,6.41300016540079,5.138067419965797,9.288208374049882,4.873780424936111,11.78038149979667C4.672059409645597,13.682570039754557,4.551630831471146,15.508903622987823,4.365514431028981,17.412682311555223C4.129659514239648,19.825234687974593,2.179841760616627,22.595749751827277,3.6262864040245564,24.540957813782853C5.094227455344182,26.515074680623215,8.42435030570941,25.20230111992311,10.751344980298175,26.000476613488587C12.652372727614443,26.65254246351636,13.997274789777773,28.617335234926564,16,28.78522835920254" fill="#d6d6d6" strokewidth="0"/>
</g>
<g id="SVGRepo_tracerCarrier" stroke-linecap="round" stroke-linejoin="round"/>
<g id="SVGRepo_iconCarrier"> <g id="rain" transform="translate(-1.912 -1.986)"> <path id="secondary" fill="#00a3d7" d="M21,9a4,4,0,0,1-4,4H6A3,3,0,1,1,7.08,7.21a5,5,0,0,1,9-2.09A4.08,4.08,0,0,1,17,5a4,4,0,0,1,4,4Z"/> <path id="primary" d="M6,17v2m4-2v4m4-4v2m4-2v4M17,5a4.08,4.08,0,0,0-.93.12,5,5,0,0,0-9,2.09A3,3,0,1,0,6,13H17a4,4,0,0,0,0-8Z" fill="none" stroke="#000000" stroke-linecap="round" stroke-linejoin="round" stroke-width="2"/> </g> </g>
</svg>