<!DOCTYPE svg PUBLIC "-//W3C//DTD SVG 1.1//EN" "http://www.w3.org/Graphics/SVG/1.1/DTD/svg11.dtd">
<!-- Uploaded to: SVG Repo, www.svgrepo.com, Transformed by: SVG Repo Mixer Tools -->
<svg width="800px" height="800px" viewBox="-1.6 -1.6 23.20 23.20" xmlns="http://www.w3.org/2000/svg" fill="#fffb00">
<g id="SVGRepo_bgCarrier" stroke-width="0" transform="translate(0,0), scale(1)">
<path transform="translate(-1.6, -1.6), scale(0.7250000000000001)" d="M16,27.820498183369637C17.77633816326838,27.248575495020322,19.27805216365959,26.11558260460589,21.102014089070348,25.721075663748987C23.73684299702621,25.151185318080223,27.18156505819816,26.953864703859264,29.03911601214632,25.00025193931952C30.773394905558323,23.176286154563932,28.8006759034886,20.077679245157245,28.860345065416922,17.561528602765538C28.91369571385786,15.31181930555883,29.964544723194813,13.099509759277211,29.372823446602833,10.92835703676879C28.76315648704412,8.691357740929597,27.63191788907967,6.1992409334016765,25.509382576632454,5.2661259894761105C23.302996581608998,4.296148372636972,20.75267951199762,6.782026239861679,18.435217115947072,6.119935778447051C15.977949549624313,5.417903495386717,14.909088155341575,0.8957408241789574,12.433567310036803,1.5304137820259314C9.944904573850765,2.1684560521423353,11.2107363670444,6.720311300988218,9.317872042930881,8.457436743618814C7.477877674597814,10.146042202980144,3.3790350960430167,8.550132022345746,2.320006529950602,10.811862812931253C1.301564743188297,12.986913818437571,4.652089258649477,14.96987118370599,5.1704487829497605,17.314945586181278C5.622425091625668,19.359700283091478,4.532408419419786,21.497595384590728,5.125907339269997,23.50584422033725C5.815336293770633,25.838695804220972,6.56196714060523,28.777324471636785,8.82307270163156,29.674492481336443C11.153591987518096,30.59920266971723,13.613380981684658,28.588911311706106,16,27.820498183369637" fill="#ebebeb" strokewidth="0"/>
</g>
<g id="SVGRepo_tracerCarrier" stroke-linecap="round" stroke-linejoin="round" stroke="#fffb00" stroke-width="1.9603920000000001"> <g id="thunder-2" transform="translate(-4.988 -1.996)"> <path id="secondary" fill="#008cb4" d="M6.24,10.63,15,21l-2.14-8H17a1,1,0,0,0,1-1.36l-3.23-8a1.05,1.05,0,0,0-1-.64H9.38a1,1,0,0,0-1,1.36L10.3,9H7.05a1,1,0,0,0-.81,1.63Z"/> <path id="primary" d="M6.24,10.63,15,21l-2.14-8H17a1,1,0,0,0,1-1.36l-3.23-8a1.05,1.05,0,0,0-1-.64H9.38a1,1,0,0,0-1,1.36L10.3,9H7.05a1,1,0,0,0-.81,1.63Z" fill="none" stroke="#000000" stroke-linecap="round" stroke-linejoin="round" stroke-width="1.440288"/> </g> </g>
<g id="SVGRepo_iconCarrier"> <g id="thunder-2" transform="translate(-4.988 -1.996)"> <path id="secondary" fill="#008cb4" d="M6.24,10.63,15,21l-2.14-8H17a1,1,0,0,0,1-1.36l-3.23-8a1.05,1.05,0,0,0-1-.64H9.38a1,1,0,0,0-1,1.36L10.3,9H7.05a1,1,0,0,0-.81,1.63Z"/> <path id="primary" d="M6.24,10.63,15,21l-2.14-8H17a1,1,0,0,0,1-1.36l-3.23-8a1.05,1.05,0,0,0-1-.64H9.38a1,1,0,0,0-1,1.36L10.3,9H7.05a1,1,0,0,0-.81,1.63Z" fill="none" stroke="#000000" stroke-linecap="round" stroke-linejoin="round" stroke-width="1.440288"/> </g> </g>
</svg>